<svg aria-hidden="true" style="width:0;height:0;position:absolute;overflow:hidden" xmlns="http://www.w3.org/2000/svg"><defs><symbol id="icon-heart" viewBox="0 0 37 32"><path d="M26.674 2.56c.92-.001 1.83.184 2.678.545s1.616.889 2.261 1.554c1.327 1.365 2.071 3.204 2.071 5.12s-.744 3.755-2.071 5.12L18.527 28.326 5.441 14.899c-1.327-1.365-2.071-3.204-2.071-5.12s.744-3.755 2.071-5.12c.644-.665 1.413-1.193 2.261-1.554a6.833 6.833 0 0 1 5.356 0c.848.36 1.617.889 2.261 1.554l3.208 3.328 3.196-3.302c.642-.673 1.411-1.208 2.262-1.574s1.766-.553 2.69-.551zm0-2.56c-1.256-.001-2.5.252-3.658.744s-2.208 1.214-3.087 2.123l-1.402 1.434-1.402-1.434c-.881-.907-1.93-1.628-3.088-2.119S11.636.003 10.38.003c-1.256 0-2.499.253-3.657.745S4.515 1.96 3.635 2.867C1.844 4.715.84 7.202.84 9.792s1.004 5.077 2.795 6.925L18.528 32l14.893-15.283c1.791-1.848 2.795-4.335 2.795-6.925s-1.004-5.077-2.795-6.925c-.88-.908-1.93-1.629-3.088-2.121S27.932 0 26.676 0z"/></symbol></defs></svg>