<svg width="18" height="18" symbol id="close" viewBox="0 0 18 18" fill="none" xmlns="http://www.w3.org/2000/svg">
<path d="M10.2533 8.99995L17.6222 1.63106C17.7678 1.46101 17.8439 1.24228 17.8353 1.01857C17.8266 0.794855 17.7339 0.582643 17.5756 0.424336C17.4173 0.26603 17.2051 0.17329 16.9814 0.164649C16.7577 0.156008 16.5389 0.232102 16.3689 0.377726L8.99998 7.74661L1.63109 0.368837C1.46371 0.201456 1.2367 0.107422 0.999983 0.107422C0.76327 0.107422 0.536253 0.201456 0.368872 0.368837C0.201491 0.536218 0.107457 0.763235 0.107457 0.999948C0.107457 1.23666 0.201491 1.46368 0.368872 1.63106L7.74665 8.99995L0.368872 16.3688C0.275821 16.4485 0.200248 16.5466 0.146894 16.6569C0.0935397 16.7671 0.0635573 16.8873 0.0588289 17.0097C0.0541005 17.1321 0.0747275 17.2542 0.119416 17.3682C0.164105 17.4823 0.23189 17.5859 0.318516 17.6725C0.405143 17.7592 0.50874 17.8269 0.622807 17.8716C0.736874 17.9163 0.858947 17.9369 0.981364 17.9322C1.10378 17.9275 1.2239 17.8975 1.33418 17.8441C1.44446 17.7908 1.54252 17.7152 1.62221 17.6222L8.99998 10.2533L16.3689 17.6222C16.5389 17.7678 16.7577 17.8439 16.9814 17.8352C17.2051 17.8266 17.4173 17.7339 17.5756 17.5756C17.7339 17.4173 17.8266 17.205 17.8353 16.9813C17.8439 16.7576 17.7678 16.5389 17.6222 16.3688L10.2533 8.99995Z" fill="black"/>
</svg>
