<svg width="18" height="11" symbol id="icon-v" viewBox="0 0 18 11" fill="none" xmlns="http://www.w3.org/2000/svg">
<path d="M9.54295 9.92995L17.5079 1.57045C17.6409 1.43096 17.7151 1.24565 17.7151 1.05295C17.7151 0.860241 17.6409 0.674931 17.5079 0.535448L17.4989 0.526447C17.4345 0.458594 17.3569 0.404565 17.2709 0.367644C17.1849 0.330724 17.0923 0.311685 16.9987 0.311685C16.9051 0.311685 16.8125 0.330724 16.7265 0.367644C16.6405 0.404565 16.5629 0.458594 16.4984 0.526447L8.99844 8.39845L1.50145 0.526446C1.43699 0.458593 1.3594 0.404563 1.2734 0.367643C1.1874 0.330722 1.09479 0.311683 1.0012 0.311683C0.907607 0.311683 0.814996 0.330722 0.728997 0.367643C0.642997 0.404563 0.565408 0.458593 0.500947 0.526446L0.491946 0.535447C0.358979 0.674929 0.284802 0.860239 0.284802 1.05295C0.284802 1.24565 0.358979 1.43096 0.491946 1.57045L8.45695 9.92995C8.52699 10.0035 8.61124 10.062 8.70458 10.102C8.79791 10.142 8.8984 10.1626 8.99995 10.1626C9.10149 10.1626 9.20198 10.142 9.29532 10.102C9.38865 10.062 9.4729 10.0035 9.54295 9.92995Z" fill="black"/>
</svg>
