<svg aria-hidden="true" style="position: absolute; width: 0; height: 0; overflow: hidden;" version="1.1" xmlns="http://www.w3.org/2000/svg" xmlns:xlink="http://www.w3.org/1999/xlink">
    <defs>
        <symbol id="icon-heart" viewBox="0 0 37 32">
            <path d="M26.674 2.56c0.92-0.001 1.83 0.184 2.678 0.545s1.616 0.889 2.261 1.554c1.327 1.365 2.071 3.204 2.071 5.12s-0.744 3.755-2.071 5.12l-13.086 13.427-13.086-13.427c-1.327-1.365-2.071-3.204-2.071-5.12s0.744-3.755 2.071-5.12c0.644-0.665 1.413-1.193 2.261-1.554s1.758-0.546 2.678-0.546c0.92 0 1.83 0.186 2.678 0.546s1.617 0.889 2.261 1.554l3.208 3.328 3.196-3.302c0.642-0.673 1.411-1.208 2.262-1.574s1.766-0.553 2.69-0.551zM26.674 0c-1.256-0.001-2.5 0.252-3.658 0.744s-2.208 1.214-3.087 2.123l-1.402 1.434-1.402-1.434c-0.881-0.907-1.93-1.628-3.088-2.119s-2.401-0.745-3.657-0.745c-1.256 0-2.499 0.253-3.657 0.745s-2.208 1.212-3.088 2.119c-1.791 1.848-2.795 4.335-2.795 6.925s1.004 5.077 2.795 6.925l14.893 15.283 14.893-15.283c1.791-1.848 2.795-4.335 2.795-6.925s-1.004-5.077-2.795-6.925c-0.88-0.908-1.93-1.629-3.088-2.121s-2.401-0.746-3.657-0.746z"></path>
        </symbol>
    </defs>
</svg>